<?xml version="1.0" encoding="UTF-8" standalone="no"?>
<!DOCTYPE svg PUBLIC "-//W3C//DTD SVG 1.1//EN" "http://www.w3.org/Graphics/SVG/1.1/DTD/svg11.dtd">
<svg width="100%" height="100%" viewBox="0 0 1080 1080" version="1.1" xmlns="http://www.w3.org/2000/svg" xmlns:xlink="http://www.w3.org/1999/xlink" xml:space="preserve" xmlns:serif="http://www.serif.com/" style="fill-rule:evenodd;clip-rule:evenodd;stroke-miterlimit:10;">
    <g transform="matrix(0.753831,0,0,0.753831,540,540)">
        <g transform="matrix(1,0,0,1,-381.25,-539.583333)">
            <clipPath id="_clip1">
                <rect x="0" y="0" width="762.5" height="1079.167"/>
            </clipPath>
            <g clip-path="url(#_clip1)">
                <g transform="matrix(4.166667,0,0,4.166667,0,0)">
                    <path d="M5.63,216.7L5.63,209.09L6.41,209.09C7.51,214.77 10.81,217.16 16.04,217.16C20.71,217.16 23.71,214.77 23.71,210.39C23.71,206.96 21.21,205.04 16.92,203.07L14.21,201.87C9.3,199.68 6.31,197.09 6.31,193.02C6.31,187.29 10.18,183.86 17.85,183.86C21.82,183.86 25.17,184.96 27.41,186.21L27.41,192.77L26.63,192.77C25.63,187.89 22.82,185.5 18.39,185.5C14.21,185.5 11.92,187.99 11.92,191.52C11.92,194.75 14.41,196.47 18.34,198.24L21.11,199.44C26.82,202.03 28.96,204.72 28.96,208.79C28.96,215.16 24.43,218.79 16.57,218.79C12.24,218.79 8.41,217.79 5.63,216.7Z" style="fill:rgb(202,153,79);fill-rule:nonzero;"/>
                </g>
                <g transform="matrix(4.166667,0,0,4.166667,0,0)">
                    <path d="M47.81,193.4C50.35,193.4 51.35,195.32 51.35,196.96C51.35,198.78 50.16,199.62 48.77,199.62C47.19,199.62 46.46,198.13 45.27,198.13C43.12,198.13 40.16,200.42 40.16,206.89L40.16,213.22C40.16,216.05 40.64,217.05 43.46,217.05L43.46,217.79L32.24,217.79L32.24,217.05C34.73,217.05 35.31,216.05 35.31,213.22L35.31,200.88C35.31,198.04 34.43,197.2 32.14,197.2L32.14,196.46L39.41,193.93L39.95,193.93L39.95,200.06C41.29,195.88 44.78,193.4 47.81,193.4Z" style="fill:rgb(202,153,79);fill-rule:nonzero;"/>
                </g>
                <g transform="matrix(4.166667,0,0,4.166667,0,0)">
                    <path d="M73.42,212L73.9,212.39C71.76,216.32 68.22,218.46 63.88,218.46C56.87,218.46 52.48,213.98 52.48,206.71C52.48,199.55 57.25,193.47 63.98,193.47C70.94,193.47 73.71,198.25 73.71,204.67L58.06,204.67L58.06,205.11C58.06,211.77 60.98,215.64 66.74,215.64C69.08,215.64 71.42,214.7 73.42,212ZM63.78,194.76C59.76,194.76 58.22,198.99 58.07,203.67L69.32,203.67C69.32,198.79 68.03,194.76 63.78,194.76Z" style="fill:rgb(202,153,79);fill-rule:nonzero;"/>
                </g>
                <g transform="matrix(4.166667,0,0,4.166667,0,0)">
                    <path d="M99.08,212L99.56,212.39C97.42,216.32 93.88,218.46 89.54,218.46C82.53,218.46 78.14,213.98 78.14,206.71C78.14,199.55 82.91,193.47 89.64,193.47C96.6,193.47 99.37,198.25 99.37,204.67L83.72,204.67L83.72,205.11C83.72,211.77 86.64,215.64 92.4,215.64C94.74,215.64 97.08,214.7 99.08,212ZM89.44,194.76C85.42,194.76 83.88,198.99 83.73,203.67L94.98,203.67C94.98,198.79 93.69,194.76 89.44,194.76Z" style="fill:rgb(202,153,79);fill-rule:nonzero;"/>
                </g>
                <g transform="matrix(4.166667,0,0,4.166667,0,0)">
                    <path d="M114.7,216.7L114.7,209.09L115.48,209.09C116.58,214.77 119.88,217.16 125.11,217.16C129.78,217.16 132.78,214.77 132.78,210.39C132.78,206.96 130.28,205.04 125.99,203.07L123.28,201.87C118.37,199.68 115.38,197.09 115.38,193.02C115.38,187.29 119.25,183.86 126.92,183.86C130.89,183.86 134.24,184.96 136.48,186.21L136.48,192.77L135.7,192.77C134.7,187.89 131.89,185.5 127.46,185.5C123.28,185.5 120.99,187.99 120.99,191.52C120.99,194.75 123.48,196.47 127.41,198.24L130.18,199.44C135.89,202.03 138.03,204.72 138.03,208.79C138.03,215.16 133.5,218.79 125.64,218.79C121.31,218.79 117.48,217.79 114.7,216.7Z" style="fill:rgb(202,153,79);fill-rule:nonzero;"/>
                </g>
                <g transform="matrix(4.166667,0,0,4.166667,0,0)">
                    <path d="M162.9,215.9L162.9,216.64C161.61,217.78 160.07,218.32 158.38,218.32C155.66,218.32 154.37,216.54 154.18,213.95C152.23,216.73 149.59,218.42 146.25,218.42C142.33,218.42 140.04,216.08 140.04,212.55C140.04,208.17 144.01,206.08 150.18,205.08L153.96,204.44L153.96,201.95C153.96,197.22 152.72,195.13 149.28,195.13C146.74,195.13 145.49,196.62 145.49,198.76C145.49,200 145.98,200.89 146.81,201.43C146.08,202.17 145.09,202.56 143.99,202.56C141.99,202.56 140.9,201.27 140.9,199.34C140.9,196.2 144.39,193.76 150.05,193.76C156.46,193.76 158.8,196.64 158.8,202.32L158.8,212.83C158.8,215.02 159.49,215.92 161.78,215.92L162.9,215.9ZM145.35,211.42C145.35,214.2 146.89,215.65 149.43,215.65C151.57,215.65 153.06,214.46 153.95,212.82L153.95,205.7L151.13,206.34C147.45,207.28 145.35,208.67 145.35,211.42Z" style="fill:rgb(202,153,79);fill-rule:nonzero;"/>
                </g>
                <g transform="matrix(4.166667,0,0,4.166667,0,0)">
                    <path d="M166.6,217.1C168.79,217.1 170.04,216.1 170.04,213.27L170.04,200.93C170.04,198.09 169.25,197.25 166.86,197.25L166.86,196.51L174.62,193.98L175.16,193.98L175.16,213.27C175.16,216.1 175.75,217.1 177.69,217.1L177.69,217.84L166.59,217.84L166.59,217.1L166.6,217.1ZM171.73,183.16C174.37,183.16 175.56,184.94 175.56,186.48C175.56,188.36 174.12,189.8 172.02,189.8C169.63,189.8 168.34,188.26 168.34,186.58C168.34,184.79 169.68,183.16 171.73,183.16Z" style="fill:rgb(202,153,79);fill-rule:nonzero;"/>
                </g>
                <g transform="matrix(4.166667,0,0,4.166667,0,0)">
                    <path d="M5.63,246.7L5.63,228.98L4.31,227.75L4.31,227.6L11.81,227.6C16.92,227.6 19.41,229.34 19.41,232.48C19.41,234.81 17.82,236.35 15.11,237C18.7,237.5 20.58,239.33 20.58,242.06C20.58,245.54 17.66,247.43 12.9,247.43L4.31,247.43L4.31,247.28L5.63,246.7ZM11.59,236.76C14.71,236.76 16.2,235.22 16.2,232.73C16.2,230.09 14.76,228.4 11.22,228.4L9.3,228.4L9.3,236.76L11.59,236.76ZM9.3,237.5L9.3,246.65L12.12,246.65C15.71,246.65 17.25,244.77 17.25,241.89C17.25,239.11 15.71,237.52 12.02,237.52L9.3,237.52L9.3,237.5Z" style="fill:rgb(202,153,79);fill-rule:nonzero;"/>
                </g>
                <g transform="matrix(4.166667,0,0,4.166667,0,0)">
                    <path d="M34.51,244.4L34.76,244.6C33.57,246.94 31.62,247.88 29.23,247.88C25.11,247.88 22.72,245.24 22.72,240.96C22.72,236.78 25.43,233.44 29.16,233.44C33.28,233.44 34.82,236.23 34.82,239.86L25.82,239.86L25.82,240.01C25.82,243.74 27.46,245.98 30.69,245.98C32.01,245.98 33.33,245.69 34.51,244.4ZM29.11,234.18C26.82,234.18 25.93,236.62 25.84,239.16L32.3,239.16C32.3,236.33 31.57,234.18 29.11,234.18Z" style="fill:rgb(202,153,79);fill-rule:nonzero;"/>
                </g>
                <g transform="matrix(4.166667,0,0,4.166667,0,0)">
                    <path d="M49.67,246.5L49.67,246.89C48.93,247.53 47.99,247.78 47.05,247.78C45.61,247.78 44.87,246.84 44.77,245.5C43.73,246.94 42.34,247.88 40.55,247.88C38.36,247.88 37.17,246.59 37.17,244.66C37.17,242.12 39.46,240.98 43.05,240.24L44.88,239.85L44.88,238.56C44.88,235.92 44.24,234.68 42.36,234.68C41.02,234.68 40.38,235.52 40.38,236.71C40.38,237.45 40.67,238.04 41.16,238.38C40.72,238.82 40.08,239.07 39.39,239.07C38.3,239.07 37.66,238.33 37.66,237.24C37.66,235.46 39.59,233.97 42.76,233.97C46.25,233.97 47.54,235.66 47.54,238.84L47.54,245.01C47.54,246.2 48.03,246.6 49.27,246.5L49.67,246.5ZM39.98,244.21C39.98,245.75 40.82,246.54 42.16,246.54C43.3,246.54 44.14,245.85 44.78,244.91L44.78,240.53L43.34,240.92C41.15,241.57 39.98,242.41 39.98,244.21Z" style="fill:rgb(202,153,79);fill-rule:nonzero;"/>
                </g>
                <g transform="matrix(4.166667,0,0,4.166667,0,0)">
                    <path d="M63.49,244.7C63.49,246.29 63.83,246.88 64.92,246.88L64.92,247.27L59.91,247.27L59.91,244.78C58.92,246.52 57.23,247.71 55.29,247.71C52.51,247.71 51.22,246.02 51.22,242.69L51.22,237.27C51.22,235.78 50.73,235.29 49.49,235.29L49.49,234.9L53.72,233.76L53.92,233.76L53.92,242.4C53.92,244.99 54.86,246.28 56.86,246.28C58.2,246.28 59.24,245.39 59.93,244.1L59.93,237.28C59.93,235.79 59.54,235.3 58.35,235.3L58.35,234.91L62.47,233.77L63.46,233.77L63.46,244.7L63.49,244.7Z" style="fill:rgb(202,153,79);fill-rule:nonzero;"/>
                </g>
                <g transform="matrix(4.166667,0,0,4.166667,0,0)">
                    <path d="M74.71,245.6L74.96,245.85C73.87,247.19 72.53,247.83 70.94,247.83C68.65,247.83 67.36,246.59 67.36,243.8L67.36,234.8L65.58,234.8L65.58,234.06C67.92,233.77 68.76,232.33 69.65,229.59L70.04,229.59L70.04,233.97L73.96,233.97L73.76,234.81L70.03,234.81L70.03,243.71C70.03,245.59 70.82,246.48 72.36,246.48C73.11,246.48 73.9,246.24 74.71,245.6Z" style="fill:rgb(202,153,79);fill-rule:nonzero;"/>
                </g>
                <g transform="matrix(4.166667,0,0,4.166667,0,0)">
                    <path d="M74.81,234.3L74.81,234.05L80.93,234.05L80.93,234.3L79.79,235.14L83.71,244.74L87.35,235.34L85.71,234.3L85.71,234.05L89.44,234.05L89.44,234.3L88.05,235.34L81.88,250.69C80.89,253.23 79.65,254.07 77.91,254.07C76.22,254.07 75.08,253.13 75.08,251.94C75.08,250.9 75.82,250.31 76.71,250.31C77.75,250.31 78.24,251.45 78.93,251.94C79.72,251.94 80.31,251.2 81.05,249.22L81.84,247.13L76.41,235.24L74.81,234.3Z" style="fill:rgb(202,153,79);fill-rule:nonzero;"/>
                </g>
                <g transform="matrix(4.166667,0,0,4.166667,0,0)">
                    <path d="M95.94,237.5C95.94,231.53 99.86,227.25 105.93,227.25C108.22,227.25 110.21,227.74 111.8,228.63L112.14,232.81L111.75,232.81C110.51,229.57 108.77,228.03 106.03,228.03C101.55,228.03 99.41,231.9 99.41,237.42C99.41,242.94 101.55,246.91 105.78,246.91C108.91,246.91 110.74,244.97 112.08,241.44L112.47,241.44L111.73,246.22C110.29,247.11 108.15,247.7 105.66,247.7C99.77,247.7 95.94,243.77 95.94,237.5Z" style="fill:rgb(202,153,79);fill-rule:nonzero;"/>
                </g>
                <g transform="matrix(4.166667,0,0,4.166667,0,0)">
                    <path d="M125.6,244.4L125.85,244.6C124.66,246.94 122.71,247.88 120.32,247.88C116.2,247.88 113.81,245.24 113.81,240.96C113.81,236.78 116.52,233.44 120.25,233.44C124.37,233.44 125.91,236.23 125.91,239.86L116.91,239.86L116.91,240.01C116.91,243.74 118.55,245.98 121.78,245.98C123.1,245.98 124.42,245.69 125.6,244.4ZM120.2,234.18C117.91,234.18 117.02,236.62 116.93,239.16L123.39,239.16C123.39,236.33 122.66,234.18 120.2,234.18Z" style="fill:rgb(202,153,79);fill-rule:nonzero;"/>
                </g>
                <g transform="matrix(4.166667,0,0,4.166667,0,0)">
                    <path d="M128.3,246.7L128.3,237.3C128.3,235.81 127.76,235.32 126.57,235.32L126.57,234.93L130.8,233.79L131,233.79L131,236.43C132.09,234.65 133.83,233.51 135.87,233.51C138.79,233.51 139.93,235.29 139.93,238.43L139.93,246.19L141.47,246.93L141.47,247.28L135.2,247.28L135.2,246.93L136.89,246.19L136.89,238.73C136.89,236.39 135.95,235.1 133.91,235.1C132.57,235.1 131.53,235.94 130.94,237.13L130.94,246.19L132.63,246.93L132.63,247.28L126.56,247.28L126.56,246.93L128.3,246.7Z" style="fill:rgb(202,153,79);fill-rule:nonzero;"/>
                </g>
                <g transform="matrix(4.166667,0,0,4.166667,0,0)">
                    <path d="M150,245.6L150.25,245.85C149.16,247.19 147.82,247.83 146.23,247.83C143.94,247.83 142.65,246.59 142.65,243.8L142.65,234.8L140.87,234.8L140.87,234.06C143.21,233.77 144.05,232.33 144.94,229.59L145.33,229.59L145.33,233.97L149.25,233.97L149.05,234.81L145.32,234.81L145.32,243.71C145.32,245.59 146.11,246.48 147.65,246.48C148.4,246.48 149.19,246.24 150,245.6Z" style="fill:rgb(202,153,79);fill-rule:nonzero;"/>
                </g>
                <g transform="matrix(4.166667,0,0,4.166667,0,0)">
                    <path d="M160,233.4C161.34,233.4 162.03,234.44 162.03,235.38C162.03,236.42 161.34,236.91 160.55,236.91C159.66,236.91 159.17,236.07 158.48,236.07C157.34,236.07 155.8,237.31 155.8,240.74L155.8,245.61L157.68,246.7L157.68,247.05L151.71,247.05L151.71,246.7L153.2,245.61L153.2,237.3C153.2,235.81 152.66,235.32 151.47,235.32L151.47,234.93L155.6,233.79L155.85,233.79L155.85,237.43C156.64,234.99 158.58,233.4 160,233.4Z" style="fill:rgb(202,153,79);fill-rule:nonzero;"/>
                </g>
                <g transform="matrix(4.166667,0,0,4.166667,0,0)">
                    <path d="M176.3,244.4L176.55,244.6C175.36,246.94 173.41,247.88 171.02,247.88C166.9,247.88 164.51,245.24 164.51,240.96C164.51,236.78 167.22,233.44 170.95,233.44C175.07,233.44 176.61,236.23 176.61,239.86L167.61,239.86L167.61,240.01C167.61,243.74 169.25,245.98 172.48,245.98C173.8,245.98 175.12,245.69 176.3,244.4ZM170.9,234.18C168.61,234.18 167.72,236.62 167.63,239.16L174.09,239.16C174.09,236.33 173.36,234.18 170.9,234.18Z" style="fill:rgb(202,153,79);fill-rule:nonzero;"/>
                </g>
                <g transform="matrix(4.166667,0,0,4.166667,0,0)">
                    <path d="M110,135.9C111.82,126.3 119.19,119.24 129.32,118.75C120.12,115.22 113.16,112.29 114.45,99.15C102.9,108.95 103.95,129.81 109.32,140.96C110.12,142.65 111.16,144.43 112.35,146.06C110.35,142.53 109.26,139.49 110,135.9Z" style="fill:rgb(247,161,224);fill-rule:nonzero;"/>
                </g>
                <g transform="matrix(4.166667,0,0,4.166667,0,0)">
                    <path d="M22.14,83.92C31.24,82.04 34.97,77.86 44.76,77.37L39.85,72.3C32.28,73.99 23.18,79.61 19.21,83.78L22.14,83.92Z" style="fill:rgb(247,161,224);fill-rule:nonzero;"/>
                </g>
                <g transform="matrix(4.166667,0,0,4.166667,0,0)">
                    <path d="M28.96,46.11C36.72,46.75 46.71,48.14 53.18,51.92L53.47,55.84L49.98,54.15C44.01,51.22 37.49,49.49 30.71,48.14L28.96,46.11Z" style="fill:rgb(247,161,224);fill-rule:nonzero;"/>
                </g>
                <g transform="matrix(4.166667,0,0,4.166667,0,0)">
                    <path d="M54.41,18.04C63.31,21.87 70.22,27.69 74.75,33.86L73.61,37.69L70.12,34.21C65.89,30.13 60.71,25.8 56.18,22.37L54.41,18.04Z" style="fill:rgb(247,161,224);fill-rule:nonzero;"/>
                </g>
                <g transform="matrix(4.166667,0,0,4.166667,0,0)">
                    <path d="M129,18.83C120.5,22.91 113.29,28.93 108.21,35.06L109.25,38.29L113.03,34.51C117.8,29.73 123.82,25.61 129,22.22L129,18.83Z" style="fill:rgb(247,161,224);fill-rule:nonzero;"/>
                </g>
                <g transform="matrix(4.166667,0,0,4.166667,0,0)">
                    <path d="M91.08,19.08C81.53,32.42 70.99,47.93 76.81,64.79C80.25,74.98 87.46,83.19 89.75,84.73C97.07,80.11 106.81,68.11 107.1,55.21C107.44,42.17 98.04,27.44 91.08,19.08Z" style="fill:rgb(247,161,224);fill-rule:nonzero;"/>
                </g>
                <g transform="matrix(4.166667,0,0,4.166667,0,0)">
                    <path d="M55.15,18.24C52.71,32.08 50.02,51.92 57.93,66.01C64.79,78.11 74.29,85.02 86.19,86.71C77.09,76.42 70.42,65.17 72.81,48.61C74.35,38.05 76.12,35.12 76.12,35.12C69.71,27.21 63.05,21.78 55.15,18.24Z" style="fill:rgb(247,161,224);fill-rule:nonzero;"/>
                </g>
                <g transform="matrix(4.166667,0,0,4.166667,0,0)">
                    <path d="M27.08,45.96C33.15,59.1 39.91,73.19 50.91,81.1C60.26,88.16 71.62,88.6 83.82,88.01C78.11,89.74 67.21,90.14 60.11,88.6C47.21,85.52 34.72,74.43 27.01,49.99L27.08,45.96Z" style="fill:rgb(247,161,224);fill-rule:nonzero;"/>
                </g>
                <g transform="matrix(4.166667,0,0,4.166667,0,0)">
                    <path d="M129.1,17.15C131.14,31.49 133.68,48.71 125.78,63.29C118.77,76.23 107.07,83.14 96.02,85.22C103.59,78.26 111.7,70.1 111.26,53.44C110.92,42.29 107.93,35.12 107.93,35.12C114.49,27.06 121.86,20.94 129.1,17.15Z" style="fill:rgb(247,161,224);fill-rule:nonzero;"/>
                </g>
                <g transform="matrix(4.166667,0,0,4.166667,0,0)">
                    <path d="M141.2,25.16C148.72,31.78 156.24,40.73 155.15,58.85C154.86,63.63 152.81,68.11 157.14,69.89C159.03,70.63 161.47,70.04 163.01,69.35C160.23,73.83 157.44,72.99 156.15,73.24C157.14,77.02 162.06,83.09 164.4,85.92C166.04,88.01 165.1,90.3 163.1,91.34C160.76,92.58 157.13,93.72 157.67,96.21C158.16,98.4 159.2,99.74 158.61,101.28C158.12,102.52 156.58,102.92 156.33,103.21C157.22,104.5 157.71,106.19 156.03,107.63C153.74,109.61 153.1,109.91 153.59,115.03C154.23,121.8 150.05,124.73 143.29,124.39C137.12,124.04 132.3,121.8 127.63,122.25C117.74,123.14 113.91,130.81 113.27,137.42C112.53,143.79 115.12,149.31 117.94,153.74C110.93,146.78 108.44,141.41 109.83,133.94C111.27,125.98 117.84,119.11 127.93,118.91C133.15,118.81 137.17,120.8 143.14,120.95C148.76,121.1 150.3,118.76 149.95,114.88C149.56,110.55 148.87,108.11 152.74,105.82C153.73,105.23 152.64,103.94 149.85,102.75C152.54,101.81 155.13,101.17 155.13,99.63C154.98,98.39 153.44,96.05 153.93,94.22C154.72,91.29 157.51,90.55 159.8,89.01C161.04,88.17 160.84,87.13 159.15,85.3C156.07,81.87 151.4,75.1 151.74,71.32C152.73,60.17 154.22,51.52 145.82,36.11C147.16,52.97 137.76,68.72 125.41,79.87C113.06,91.02 100.22,97.84 95.84,115.11C90.92,133.89 99.92,146.38 111.77,155.73C99.42,147.08 91.17,134.43 92.81,121.04C94.15,109.59 99.22,101.98 109.81,92.23C117.96,84.52 127.91,77.31 135.77,64.82C143.83,52.22 143.83,42.17 141.19,25.16L141.2,25.16Z" style="fill:url(#_Linear2);fill-rule:nonzero;"/>
                </g>
                <g transform="matrix(4.166667,0,0,4.166667,0,0)">
                    <path d="M18.22,112.6C23.99,113.64 29.41,113.74 36.92,113.54C49.12,113.24 59.92,117.92 65.29,128.17L67.12,134.94L64.78,133.06C57.12,122.16 50.21,120.12 37.51,122.16C46.11,122.95 56.4,127.13 66.04,134.79L69.22,137.72L67.53,138.76C61.12,138.32 57.78,139.16 51.71,138.76C35.31,137.72 24.82,128.72 18.21,112.6L18.22,112.6Z" style="fill:url(#_Linear3);fill-rule:nonzero;stroke:url(#_Linear4);stroke-width:3.19px;"/>
                </g>
                <g transform="matrix(4.166667,0,0,4.166667,0,0)">
                    <path d="M80.94,130.1C78.7,135.92 79.19,138.75 83.82,144.42C89.44,151.24 96.7,160.09 91.33,174.08L90.39,175.96L85.11,170.59C77.1,161.89 73.81,150.14 75.81,137.05C77.85,124.66 89.05,107.8 105.01,94.16C106.05,93.32 108.24,94.71 107.2,95.7C96.61,105.65 86.17,116.9 80.94,130.1Z" style="fill:url(#_Linear5);fill-rule:nonzero;stroke:url(#_Linear6);stroke-width:3.19px;"/>
                </g>
                <g transform="matrix(4.166667,0,0,4.166667,0,0)">
                    <path d="M81.48,96.5C84.02,92.72 87.15,88.65 93.91,86.96C107.15,83.43 117.84,76.62 124.7,65.42C133.2,51.78 130.21,33.05 129.07,17.15C120.12,20.68 111.17,26.05 105.8,31.82C101.13,22.72 96.11,14.41 91.29,9.49C85.52,17.15 80.65,24.11 76.82,31.38C70.11,24.91 62.1,20.08 53.51,17.15C52.22,27.7 50.38,34.72 51.32,45.57C42.82,43.79 34.82,43.49 26.91,45.12C30.14,52.53 33.73,60.79 39.25,68.8C30.9,71.88 24.28,76.01 19.11,82.18C29.91,90.73 40.85,97.2 52.21,98.89C62.11,100.38 73.11,97.84 81.47,93.31" style="fill:none;fill-rule:nonzero;stroke:url(#_Linear7);stroke-width:3.6px;"/>
                </g>
                <g transform="matrix(4.166667,0,0,4.166667,0,0)">
                    <path d="M76.12,50.8C77.51,36.01 86.66,23.02 91.28,10.62C101.42,24.81 110.72,37.85 109.98,53.61C109.19,70.23 100.04,79.08 89.75,85.21C80.79,77.26 74.92,63.58 76.12,50.8Z" style="fill:none;fill-rule:nonzero;stroke:url(#_Linear8);stroke-width:3.6px;"/>
                </g>
                <g transform="matrix(4.166667,0,0,4.166667,0,0)">
                    <path d="M81.53,35.22C93.83,49.11 97.11,63.93 92.39,83.19" style="fill:none;fill-rule:nonzero;stroke:url(#_Linear9);stroke-width:3.6px;"/>
                </g>
                <g transform="matrix(4.166667,0,0,4.166667,0,0)">
                    <path d="M76.41,119C76.12,107 81.73,95.1 88.95,87.3C92.39,84.22 94.63,85.41 94.63,85.41C90.71,88 80.12,97.6 76.41,119Z" style="fill:url(#_Linear10);fill-rule:nonzero;"/>
                </g>
            </g>
        </g>
    </g>
    <defs>
        <linearGradient id="_Linear2" x1="0" y1="0" x2="1" y2="0" gradientUnits="userSpaceOnUse" gradientTransform="matrix(0,130.54,-130.54,0,128,25.16)"><stop offset="0" style="stop-color:rgb(214,176,120);stop-opacity:1"/><stop offset="1" style="stop-color:rgb(170,134,68);stop-opacity:1"/></linearGradient>
        <linearGradient id="_Linear3" x1="0" y1="0" x2="1" y2="0" gradientUnits="userSpaceOnUse" gradientTransform="matrix(0,25.5,-25.5,0,43.57,113.5)"><stop offset="0" style="stop-color:rgb(214,176,120);stop-opacity:1"/><stop offset="1" style="stop-color:rgb(214,176,120);stop-opacity:1"/></linearGradient>
        <linearGradient id="_Linear4" x1="0" y1="0" x2="1" y2="0" gradientUnits="userSpaceOnUse" gradientTransform="matrix(0,25.5,-25.5,0,43.57,113.5)"><stop offset="0" style="stop-color:rgb(170,134,68);stop-opacity:1"/><stop offset="1" style="stop-color:rgb(181,151,95);stop-opacity:1"/></linearGradient>
        <linearGradient id="_Linear5" x1="0" y1="0" x2="1" y2="0" gradientUnits="userSpaceOnUse" gradientTransform="matrix(0,82.3,-82.3,0,90.61,93.6)"><stop offset="0" style="stop-color:rgb(214,176,120);stop-opacity:1"/><stop offset="1" style="stop-color:rgb(214,176,120);stop-opacity:1"/></linearGradient>
        <linearGradient id="_Linear6" x1="0" y1="0" x2="1" y2="0" gradientUnits="userSpaceOnUse" gradientTransform="matrix(0,82.3,-82.3,0,90.61,93.6)"><stop offset="0" style="stop-color:rgb(170,134,68);stop-opacity:1"/><stop offset="1" style="stop-color:rgb(181,151,95);stop-opacity:1"/></linearGradient>
        <linearGradient id="_Linear7" x1="0" y1="0" x2="1" y2="0" gradientUnits="userSpaceOnUse" gradientTransform="matrix(0,90.184,-90.184,0,74.82,9.486)"><stop offset="0" style="stop-color:rgb(214,176,120);stop-opacity:1"/><stop offset="1" style="stop-color:rgb(170,134,68);stop-opacity:1"/></linearGradient>
        <linearGradient id="_Linear8" x1="0" y1="0" x2="1" y2="0" gradientUnits="userSpaceOnUse" gradientTransform="matrix(0,74.58,-74.58,0,92.92,10.63)"><stop offset="0" style="stop-color:rgb(214,176,120);stop-opacity:1"/><stop offset="1" style="stop-color:rgb(170,134,68);stop-opacity:1"/></linearGradient>
        <linearGradient id="_Linear9" x1="0" y1="0" x2="1" y2="0" gradientUnits="userSpaceOnUse" gradientTransform="matrix(0,47.97,-47.97,0,87.94,35.22)"><stop offset="0" style="stop-color:rgb(214,176,120);stop-opacity:1"/><stop offset="1" style="stop-color:rgb(214,176,120);stop-opacity:1"/></linearGradient>
        <linearGradient id="_Linear10" x1="0" y1="0" x2="1" y2="0" gradientUnits="userSpaceOnUse" gradientTransform="matrix(0,34.28,-34.28,0,85.52,84.72)"><stop offset="0" style="stop-color:rgb(214,176,120);stop-opacity:1"/><stop offset="1" style="stop-color:rgb(170,134,68);stop-opacity:1"/></linearGradient>
    </defs>
</svg>
